<?xml version="1.0"?>
<svg width="500" height="500" xmlns="http://www.w3.org/2000/svg" xmlns:svg="http://www.w3.org/2000/svg">
 <g class="layer">
  <title>Layer 1</title>
  <g id="svg_2" transform="matrix(8.82428 0 0 8.14253 137.887 145.956)">
   <path d="m9.21,23.3c-2.09,0 -4.05,-1.03 -5.21,-2.68c-1.46,-0.04 -2.89,-0.58 -4,-1.54c-1.31,-1.15 -2.07,-2.78 -2.07,-4.47c0,-1.6 0.65,-3.1 1.79,-4.22c-0.07,-0.38 -0.11,-0.77 -0.11,-1.17c0,-3.62 3.05,-6.55 6.8,-6.55c0,0 0,0 0.02,0c1.57,0 3.08,0.53 4.28,1.47c0.96,-0.62 2.06,-0.9 3.25,-0.93c1.63,0 3.18,0.66 4.3,1.77c0.52,-0.11 1.04,-0.16 1.56,-0.16c4.06,0 7.37,3.18 7.37,7.09c0,3.9 -3.31,7.09 -7.37,7.09c-0.03,0 -0.06,0 -0.09,0c-1.12,1.35 -2.84,2.18 -4.66,2.14c0,0 0,0 -0.01,0c-0.34,0 -0.67,-0.02 -1,-0.08c-1.17,1.41 -2.96,2.24 -4.85,2.24zm-3.79,-5.14l0.37,0.74c0.64,1.25 1.98,2.06 3.43,2.06c1.34,0 2.61,-0.7 3.29,-1.82l0.5,-0.84l0.94,0.32c0.36,0.12 0.74,0.18 1.12,0.18c0,0 0.01,0 0.01,0c1.22,0 2.37,-0.62 3,-1.64l0.42,-0.65l0.79,0.09c0.18,0.03 0.36,0.04 0.55,0.04c2.72,0 4.92,-2.13 4.92,-4.75c0,-2.61 -2.2,-4.74 -4.92,-4.74c-0.55,0 -1.09,0.08 -1.6,0.26l-0.88,0.29l-0.52,-0.71c-0.66,-0.91 -1.75,-1.43 -2.89,-1.45c-0.9,0.03 -1.81,0.34 -2.46,0.98l-0.93,0.89l-0.85,-0.95c-0.83,-0.92 -2.03,-1.44 -3.3,-1.44c0,0 0,0 0,0c-2.41,0 -4.36,1.89 -4.36,4.2c0,0.41 0.06,0.83 0.2,1.23l0.24,0.77l-0.66,0.5c-0.93,0.69 -1.46,1.75 -1.46,2.87c0,1.04 0.46,2.04 1.27,2.74c0.8,0.7 1.85,1.03 2.92,0.91l0.86,-0.08z" id="svg_3" stroke-width="0.97"/>
   <path d="m33.11,-0.41l0,35.03a6.83,7.37 0 0 1 -6.83,7.37l-27.33,0a6.83,7.37 0 0 1 -6.83,-7.37l0,-44.25a6.83,7.37 0 0 1 6.83,-7.37l18.79,0l15.37,16.59zm-10.25,0a5.12,5.53 0 0 1 -5.12,-5.53l0,-7.37l-18.79,0a3.42,3.69 0 0 0 -3.42,3.69l0,44.25a3.42,3.69 0 0 0 3.42,3.69l27.33,0a3.42,3.69 0 0 0 3.42,-3.69l0,-35.03l-6.83,0z" id="svg_1"/>
  </g>
 </g>
</svg>